<svg width="35" height="35" viewBox="0 0 35 35" fill="none" xmlns="http://www.w3.org/2000/svg">
<path d="M18.2242 22.4369C19.4058 22.4369 20.4046 22.0342 21.2205 21.2288C22.0363 20.4234 22.4443 19.4375 22.4443 18.271V9.10586H27.5084V5.77308H20.7563V14.9382C20.3905 14.6605 19.9967 14.4522 19.5747 14.3133C19.1526 14.1744 18.7025 14.105 18.2242 14.105C17.0426 14.105 16.0439 14.5077 15.228 15.3131C14.4121 16.1186 14.0042 17.1045 14.0042 18.271C14.0042 19.4375 14.4121 20.4234 15.228 21.2288C16.0439 22.0342 17.0426 22.4369 18.2242 22.4369ZM10.6281 27.4361C9.69972 27.4361 8.90522 27.1101 8.24465 26.4579C7.58407 25.8058 7.25321 25.021 7.25209 24.1033V4.1067C7.25209 3.19019 7.58294 2.40587 8.24465 1.75376C8.90635 1.10165 9.70085 0.775037 10.6281 0.773926H30.8844C31.8128 0.773926 32.6079 1.10054 33.2696 1.75376C33.9313 2.40698 34.2616 3.1913 34.2604 4.1067V24.1033C34.2604 25.0198 33.9302 25.8047 33.2696 26.4579C32.609 27.1112 31.8139 27.4372 30.8844 27.4361H10.6281ZM3.87604 34.1017C2.94763 34.1017 2.15314 33.7756 1.49256 33.1235C0.831978 32.4714 0.501125 31.6865 0.5 30.7689V7.43947H3.87604V30.7689H27.5084V34.1017H3.87604Z" fill="white"/>
</svg>
