<svg width="40" height="40" viewBox="0 0 40 40" fill="none" xmlns="http://www.w3.org/2000/svg">
<path d="M29.6665 3.49996L13.1165 7.64996C10.6998 8.24996 8.24983 10.7 7.64983 13.1166L3.49983 29.6666C2.24983 34.6666 5.3165 37.75 10.3332 36.5L26.8832 32.3666C29.2832 31.7666 31.7498 29.3 32.3498 26.9L36.4998 10.3333C37.7498 5.33329 34.6665 2.24996 29.6665 3.49996Z" stroke="white" stroke-width="1.5" stroke-linecap="round" stroke-linejoin="round"/>
<path d="M19.9998 25.8333C23.2215 25.8333 25.8332 23.2216 25.8332 20C25.8332 16.7783 23.2215 14.1666 19.9998 14.1666C16.7782 14.1666 14.1665 16.7783 14.1665 20C14.1665 23.2216 16.7782 25.8333 19.9998 25.8333Z" stroke="white" stroke-width="1.5" stroke-linecap="round" stroke-linejoin="round"/>
</svg>
